<?xml version="1.0" encoding="UTF-8" standalone="no"?>
<svg
   version="1.1"
   width="902"
   height="902"
   viewBox="0 0 902.00002 902.00002"
   id="svg14"
   sodipodi:docname="Color logo only- no background-filled.svg"
   inkscape:export-filename="C:\Users\brand\OneDrive\Branding\NorcherDevelopments\Logo Files\For Web\png\Color logo only - no background-full.png"
   inkscape:export-xdpi="96"
   inkscape:export-ydpi="96"
   inkscape:version="1.1 (c68e22c387, 2021-05-23)"
   xmlns:inkscape="http://www.inkscape.org/namespaces/inkscape"
   xmlns:sodipodi="http://sodipodi.sourceforge.net/DTD/sodipodi-0.dtd"
   xmlns="http://www.w3.org/2000/svg"
   xmlns:svg="http://www.w3.org/2000/svg">
  <defs
     id="defs18" />
  <sodipodi:namedview
     id="namedview16"
     pagecolor="#505050"
     bordercolor="#eeeeee"
     borderopacity="1"
     inkscape:pageshadow="0"
     inkscape:pageopacity="0"
     inkscape:pagecheckerboard="0"
     showgrid="false"
     inkscape:zoom="0.45225975"
     inkscape:cx="1603.0611"
     inkscape:cy="451.06822"
     inkscape:window-width="3840"
     inkscape:window-height="2054"
     inkscape:window-x="3829"
     inkscape:window-y="-11"
     inkscape:window-maximized="1"
     inkscape:current-layer="g12" />
  <g
     transform="matrix(10.416667,0,0,10.416667,104.16667,104.16667)"
     id="g12">
    <defs
       id="SvgjsDefs2029" />
    <g
       id="SvgjsG2030"
       featureKey="symbolContainer"
       transform="matrix(1.15456,0,0,1.1701621,-10,-10)"
       fill="#ff5722">
      <rect
         width="75"
         height="74"
         rx="10"
         ry="10"
         id="rect3"
         x="0"
         y="0" />
    </g>
    <g
       id="SvgjsG2031"
       featureKey="monogramFeature-0"
       transform="matrix(1.0324939,0,0,1.0464465,7.427693,-8.483908)"
       fill="#303841">
      <path
         d="m 39.596,56.1583 c 0.09914,0.18621 0.20467,0.36862 0.30316,0.55483 0.69024,1.3405 -3.4836,4.2959 -4.6372,3.3355 -4.6212,-4.8488 -9.4866,-9.4152 -14.441,-14.06 -1.5215,-1.4256 -3.0508,-2.867 -4.5793,-4.3264 l -2.9275,16.855 c -0.25869,1.362 -5.3719,1.2476 -5.71,-0.14555 l -4.6003,-37.86 c -0.28858,-1.0315 17.177,-0.586 16.837,0.42967 l -0.12269,0.70674 c 2.984,5.7583 6.369,11.457 9.8724,17.249 0.2676,0.44239 0.53578,0.89046 0.80394,1.334 -0.9171,-7.0428 -1.0315,-14.306 -0.2567,-21.613 -0.04066,-1.1516 16.841,3.3526 16.338,4.0918 -4.4287,10 -6.8298,21.356 -6.708,33.058 -0.0013,0.13412 -0.06932,0.26379 -0.17227,0.389 z"
         id="path6" />
    </g>
  </g>
</svg>
